<svg xmlns="http://www.w3.org/2000/svg" width="800" height="800" viewBox="0 0 32 32" xml:space="preserve">
  <path d="M29 32H3a3 3 0 0 1-3-3V3a3 3 0 0 1 3-3h26a3 3 0 0 1 3 3v26a3 3 0 0 1-3 3" style="fill:#f2c99e"/>
  <path d="M27 32H3a3 3 0 0 1-3-3V3a3 3 0 0 1 3-3h24a3 3 0 0 1 3 3v26a3 3 0 0 1-3 3" style="fill:#f9e0bd"/>
  <path d="M28 3v17a1 1 0 0 1-1 1H3a1 1 0 0 1-1-1V3a1 1 0 0 1 1-1h24a1 1 0 0 1 1 1m-1 21H16a1 1 0 0 0 0 2h11a1 1 0 0 0 0-2m-14 0a1 1 0 1 0 0 2 1 1 0 0 0 0-2" style="fill:#67625d"/>
  <path d="M9.5 8h-3a.5.5 0 0 1 0-1h3a.5.5 0 0 1 0 1m.5 1.5a.5.5 0 0 0-.5-.5h-3a.5.5 0 0 0 0 1h3a.5.5 0 0 0 .5-.5m0 2a.5.5 0 0 0-.5-.5h-3a.5.5 0 0 0 0 1h3a.5.5 0 0 0 .5-.5m0 2a.5.5 0 0 0-.5-.5h-3a.5.5 0 0 0 0 1h3a.5.5 0 0 0 .5-.5" style="fill:#e69d8a"/>
  <path d="M24.5 16h-17a.5.5 0 0 1 0-1h17a.5.5 0 0 1 0 1M23 13.5a.5.5 0 0 0-.5-.5h-11a.5.5 0 0 0 0 1h11a.5.5 0 0 0 .5-.5" style="fill:#98d3bc"/>
  <path d="M6.5 6h-1a.5.5 0 0 1 0-1h1a.5.5 0 0 1 0 1M25 7.5a.5.5 0 0 0-.5-.5h-13a.5.5 0 0 0 0 1h13a.5.5 0 0 0 .5-.5m-2 2a.5.5 0 0 0-.5-.5h-11a.5.5 0 0 0 0 1h11a.5.5 0 0 0 .5-.5m2 2a.5.5 0 0 0-.5-.5h-13a.5.5 0 0 0 0 1h13a.5.5 0 0 0 .5-.5m-18 6a.5.5 0 0 0-.5-.5h-1a.5.5 0 0 0 0 1h1a.5.5 0 0 0 .5-.5" style="fill:#fff2df"/>
</svg>
