<svg width="800" height="800" viewBox="0 -0.5 74 74" xmlns="http://www.w3.org/2000/svg"><g fill="none"><rect x="-1" y="-1" width="71" height="71" rx="14" transform="translate(2 2)" fill="#FFF" stroke="#373737" stroke-width="2"/><g transform="translate(14 14)"><g fill="#EF2648"><path d="m3.711 42.237-1.422-.474L7.49 26.155 5.923 5.78l19.439 4.666 12.48-8.075.815 1.258-13.02 8.425L7.577 7.72 9.01 26.344l-.05.143z"/><path d="m42.067 12.005-.136 1.494-16.5-1.5.136-1.494zM14.212 41.767l-1.422.474-5.25-15.753 1.421-.474zm6.381-6.39-3.326-14.964 1.466-.326 2.673 12.036 8.025-9.361 1.138.976z"/><path d="m38.443 37.529-.379 1.452-17.25-4.5.379-1.451z"/></g><circle fill="#B7E5FF" cx="6.75" cy="6.75" r="6"/><path d="M10.174 1.826a5.996 5.996 0 0 1-8.348 8.348 6 6 0 1 0 8.348-8.348" fill="#99C8E0"/><circle fill="#B7E5FF" cx="38.25" cy="38.25" r="6"/><path d="M41.674 33.326a5.996 5.996 0 0 1-8.348 8.348 6 6 0 1 0 8.348-8.348" fill="#99C8E0"/><circle fill="#4DB5FF" cx="21" cy="33.75" r="3.75"/><path d="M23.241 30.759a3.735 3.735 0 0 1-5.232 5.232 3.74 3.74 0 1 0 5.232-5.232" fill="#3596D8"/><circle fill="#4DB5FF" cx="8.25" cy="26.25" r="3.75"/><path d="M10.491 23.259a3.735 3.735 0 0 1-5.232 5.232 3.74 3.74 0 1 0 5.232-5.232" fill="#3596D8"/><circle fill="#4DB5FF" cx="25.5" cy="11.25" r="3.75"/><path d="M27.741 8.259a3.735 3.735 0 0 1-5.232 5.232 3.74 3.74 0 1 0 5.232-5.232" fill="#3596D8"/><circle fill="#235087" cx="3" cy="42" r="2.25"/><path d="M4.165 40.085c.218.35.334.753.335 1.165a2.25 2.25 0 0 1-2.25 2.25 2.2 2.2 0 0 1-1.166-.334 2.245 2.245 0 1 0 3.081-3.081" fill="#163768"/><circle fill="#235087" cx="13.5" cy="42" r="2.25"/><path d="M14.666 40.085c.217.35.333.753.334 1.165a2.25 2.25 0 0 1-2.25 2.25 2.2 2.2 0 0 1-1.165-.334 2.245 2.245 0 1 0 3.08-3.081" fill="#163768"/><circle fill="#235087" cx="18" cy="20.25" r="2.25"/><path d="M19.166 18.335c.217.35.333.753.334 1.165a2.25 2.25 0 0 1-2.25 2.25 2.2 2.2 0 0 1-1.165-.334 2.245 2.245 0 1 0 3.08-3.081" fill="#163768"/><circle fill="#235087" cx="30" cy="23.25" r="2.25"/><path d="M31.165 21.334c.218.35.334.754.335 1.166a2.25 2.25 0 0 1-2.25 2.25 2.2 2.2 0 0 1-1.166-.335 2.245 2.245 0 1 0 3.081-3.08" fill="#163768"/><circle fill="#235087" cx="42" cy="12.75" r="2.25"/><path d="M43.166 10.835c.217.35.333.753.334 1.165a2.25 2.25 0 0 1-2.25 2.25 2.2 2.2 0 0 1-1.165-.334 2.245 2.245 0 1 0 3.08-3.081" fill="#163768"/><circle fill="#235087" cx="38.25" cy="3" r="2.25"/><path d="M39.416 1.084c.217.35.333.754.334 1.166A2.25 2.25 0 0 1 37.5 4.5a2.2 2.2 0 0 1-1.165-.335 2.245 2.245 0 1 0 3.08-3.08" fill="#163768"/><path d="M6.75 13.5a6.75 6.75 0 1 1 0-13.5 6.75 6.75 0 0 1 6.75 6.75 6.76 6.76 0 0 1-6.75 6.75m0-12a5.25 5.25 0 1 0 0 10.5 5.25 5.25 0 0 0 0-10.5M38.25 6a3 3 0 1 1 0-6 3 3 0 0 1 0 6m0-4.5a1.5 1.5 0 1 0 0 3 1.5 1.5 0 0 0 0-3M25.5 15.75a4.5 4.5 0 1 1 0-9 4.5 4.5 0 0 1 0 9m0-7.5a3 3 0 1 0 0 6 3 3 0 0 0 0-6m16.5 7.5a3 3 0 1 1 0-6 3 3 0 0 1 0 6m0-4.5a1.5 1.5 0 1 0 0 3 1.5 1.5 0 0 0 0-3M38.25 45a6.75 6.75 0 1 1 0-13.5A6.75 6.75 0 0 1 45 38.25 6.76 6.76 0 0 1 38.25 45m0-12a5.25 5.25 0 1 0 0 10.5 5.25 5.25 0 0 0 0-10.5m-30-2.25a4.5 4.5 0 1 1 0-9 4.5 4.5 0 0 1 0 9m0-7.5a3 3 0 1 0 0 6 3 3 0 0 0 0-6M3 45a3 3 0 1 1 0-6 3 3 0 0 1 0 6m0-4.5a1.5 1.5 0 1 0 0 3 1.5 1.5 0 0 0 0-3m18-2.25a4.5 4.5 0 1 1 0-9 4.5 4.5 0 0 1 0 9m0-7.5a3 3 0 1 0 0 6 3 3 0 0 0 0-6m-3-7.5a3 3 0 1 1 0-6 3 3 0 0 1 0 6m0-4.5a1.5 1.5 0 1 0 0 3 1.5 1.5 0 0 0 0-3m12 7.5a3 3 0 1 1 0-6 3 3 0 0 1 0 6m0-4.5a1.5 1.5 0 1 0 0 3 1.5 1.5 0 0 0 0-3M13.5 45a3 3 0 1 1 0-6 3 3 0 0 1 0 6m0-4.5a1.5 1.5 0 1 0 0 3 1.5 1.5 0 0 0 0-3" fill="#000"/></g></g></svg>